<svg xmlns="http://www.w3.org/2000/svg" viewBox="0 0 1920 1080" fill="none">
  <defs>
    <linearGradient id="trace-main" x1="0" y1="0" x2="1920" y2="1080" gradientUnits="userSpaceOnUse">
      <stop offset="0" stop-color="#F4D6FF" stop-opacity="0.72" />
      <stop offset="1" stop-color="#B5A5FF" stop-opacity="0.58" />
    </linearGradient>
    <linearGradient id="trace-soft" x1="1920" y1="0" x2="0" y2="1080" gradientUnits="userSpaceOnUse">
      <stop offset="0" stop-color="#DCCEFF" stop-opacity="0.42" />
      <stop offset="1" stop-color="#A598F2" stop-opacity="0.24" />
    </linearGradient>
  </defs>

  <g stroke-linecap="round" stroke-linejoin="round" fill="none">
    <g stroke="url(#trace-main)" opacity="0.42">
      <path vector-effect="non-scaling-stroke" stroke-width="2.4" d="M20 88 H260 L324 152 H552 L616 216 H874 L930 272 H1112" />
      <path vector-effect="non-scaling-stroke" stroke-width="2.3" d="M20 172 H214 L286 244 H502 L564 306 H768 L824 362 H1040" />
      <path vector-effect="non-scaling-stroke" stroke-width="2.2" d="M20 258 H254 L322 326 H568 L632 390 H852 L916 454 H1128" />
      <path vector-effect="non-scaling-stroke" stroke-width="2.1" d="M20 346 H224 L294 416 H520 L584 480 H804 L864 540 H1068" />
      <path vector-effect="non-scaling-stroke" stroke-width="2.2" d="M20 438 H242 L306 502 H540 L604 566 H828 L888 626 H1100" />
      <path vector-effect="non-scaling-stroke" stroke-width="2.1" d="M20 532 H208 L282 606 H506 L568 668 H786 L846 728 H1046" />
      <path vector-effect="non-scaling-stroke" stroke-width="2.2" d="M20 632 H250 L320 702 H558 L622 766 H846 L906 826 H1138" />
      <path vector-effect="non-scaling-stroke" stroke-width="2.3" d="M20 732 H216 L286 802 H504 L566 864 H784 L846 926 H1056" />
      <path vector-effect="non-scaling-stroke" stroke-width="2.2" d="M20 836 H256 L338 918 H586 L648 980 H870" />

      <path vector-effect="non-scaling-stroke" stroke-width="2.4" d="M1900 112 H1664 L1588 188 H1360 L1296 252 H1064 L1008 308 H812" />
      <path vector-effect="non-scaling-stroke" stroke-width="2.3" d="M1900 206 H1692 L1618 280 H1398 L1328 350 H1128 L1070 408 H856" />
      <path vector-effect="non-scaling-stroke" stroke-width="2.2" d="M1900 304 H1658 L1588 374 H1356 L1290 440 H1086 L1022 504 H812" />
      <path vector-effect="non-scaling-stroke" stroke-width="2.1" d="M1900 408 H1700 L1626 482 H1398 L1334 546 H1128 L1068 606 H860" />
      <path vector-effect="non-scaling-stroke" stroke-width="2.2" d="M1900 514 H1678 L1608 584 H1388 L1322 650 H1100 L1038 712 H830" />
      <path vector-effect="non-scaling-stroke" stroke-width="2.1" d="M1900 624 H1688 L1616 696 H1404 L1338 762 H1120 L1058 824 H850" />
      <path vector-effect="non-scaling-stroke" stroke-width="2.2" d="M1900 736 H1662 L1586 812 H1360 L1296 876 H1074 L1014 936 H792" />
      <path vector-effect="non-scaling-stroke" stroke-width="2.3" d="M1900 850 H1706 L1628 928 H1418 L1350 996 H1092" />

      <path vector-effect="non-scaling-stroke" stroke-width="2.2" d="M284 40 H492 L564 112 H754 L828 42 H1046 L1122 118 H1384 L1454 188 H1648" />
      <path vector-effect="non-scaling-stroke" stroke-width="2.2" d="M268 1040 H520 L596 964 H830 L912 1036 H1168 L1240 962 H1486 L1554 892 H1740" />
      <path vector-effect="non-scaling-stroke" stroke-width="2" d="M630 148 H806 L866 208 H1038 L1106 140 H1264" />
      <path vector-effect="non-scaling-stroke" stroke-width="2" d="M592 928 H780 L844 864 H1032 L1100 936 H1276" />
    </g>

    <g stroke="url(#trace-soft)" opacity="0.4">
      <path vector-effect="non-scaling-stroke" stroke-width="1.6" d="M120 120 H330 L392 182 H562 L626 246 H756" />
      <path vector-effect="non-scaling-stroke" stroke-width="1.6" d="M120 220 H296 L352 276 H544 L606 338 H758" />
      <path vector-effect="non-scaling-stroke" stroke-width="1.6" d="M120 322 H320 L380 382 H566 L624 440 H786" />
      <path vector-effect="non-scaling-stroke" stroke-width="1.6" d="M120 430 H282 L342 490 H538 L594 546 H768" />
      <path vector-effect="non-scaling-stroke" stroke-width="1.6" d="M120 542 H330 L396 608 H598 L654 664 H836" />
      <path vector-effect="non-scaling-stroke" stroke-width="1.6" d="M120 654 H292 L354 716 H548 L606 774 H790" />
      <path vector-effect="non-scaling-stroke" stroke-width="1.6" d="M120 770 H322 L386 834 H598 L660 896 H840" />

      <path vector-effect="non-scaling-stroke" stroke-width="1.6" d="M1800 136 H1590 L1526 200 H1360 L1290 270 H1120" />
      <path vector-effect="non-scaling-stroke" stroke-width="1.6" d="M1800 252 H1618 L1554 316 H1382 L1312 386 H1136" />
      <path vector-effect="non-scaling-stroke" stroke-width="1.6" d="M1800 370 H1586 L1518 438 H1338 L1272 504 H1110" />
      <path vector-effect="non-scaling-stroke" stroke-width="1.6" d="M1800 494 H1624 L1560 558 H1386 L1318 626 H1146" />
      <path vector-effect="non-scaling-stroke" stroke-width="1.6" d="M1800 620 H1596 L1528 688 H1346 L1282 752 H1126" />
      <path vector-effect="non-scaling-stroke" stroke-width="1.6" d="M1800 746 H1622 L1552 816 H1370 L1302 884 H1148" />
      <path vector-effect="non-scaling-stroke" stroke-width="1.6" d="M1800 874 H1604 L1532 946 H1350 L1286 1010 H1166" />

      <path vector-effect="non-scaling-stroke" stroke-width="1.5" d="M472 180 H670 L734 244 H924 L986 182 H1180" />
      <path vector-effect="non-scaling-stroke" stroke-width="1.5" d="M452 306 H646 L710 370 H908 L976 306 H1172" />
      <path vector-effect="non-scaling-stroke" stroke-width="1.5" d="M438 442 H628 L696 510 H900 L966 444 H1152" />
      <path vector-effect="non-scaling-stroke" stroke-width="1.5" d="M424 580 H620 L684 644 H896 L962 578 H1146" />
      <path vector-effect="non-scaling-stroke" stroke-width="1.5" d="M442 720 H636 L704 788 H906 L972 724 H1162" />
      <path vector-effect="non-scaling-stroke" stroke-width="1.5" d="M462 850 H656 L722 916 H920 L988 852 H1178" />
    </g>

    <g stroke="url(#trace-soft)" opacity="0.3">
      <path vector-effect="non-scaling-stroke" stroke-width="1.2" stroke-dasharray="14 24" d="M340 132 H592 L652 192 H902 L962 132 H1212" />
      <path vector-effect="non-scaling-stroke" stroke-width="1.2" stroke-dasharray="12 22" d="M328 262 H562 L628 328 H872 L930 266 H1168" />
      <path vector-effect="non-scaling-stroke" stroke-width="1.2" stroke-dasharray="14 20" d="M310 398 H548 L610 460 H854 L914 402 H1150" />
      <path vector-effect="non-scaling-stroke" stroke-width="1.2" stroke-dasharray="10 24" d="M302 538 H530 L598 606 H846 L906 544 H1142" />
      <path vector-effect="non-scaling-stroke" stroke-width="1.2" stroke-dasharray="12 22" d="M318 674 H564 L624 734 H876 L938 676 H1188" />
      <path vector-effect="non-scaling-stroke" stroke-width="1.2" stroke-dasharray="14 24" d="M336 812 H590 L650 872 H906 L968 814 H1218" />
    </g>
  </g>

  <g fill="#DED7FF" opacity="0.58">
    <circle cx="20" cy="88" r="4.4" />
    <circle cx="20" cy="172" r="4.2" />
    <circle cx="20" cy="258" r="4.2" />
    <circle cx="20" cy="346" r="4.1" />
    <circle cx="20" cy="438" r="4.2" />
    <circle cx="20" cy="532" r="4.1" />
    <circle cx="20" cy="632" r="4.2" />
    <circle cx="20" cy="732" r="4.2" />
    <circle cx="20" cy="836" r="4.2" />

    <circle cx="1900" cy="112" r="4.4" />
    <circle cx="1900" cy="206" r="4.2" />
    <circle cx="1900" cy="304" r="4.2" />
    <circle cx="1900" cy="408" r="4.1" />
    <circle cx="1900" cy="514" r="4.2" />
    <circle cx="1900" cy="624" r="4.1" />
    <circle cx="1900" cy="736" r="4.2" />
    <circle cx="1900" cy="850" r="4.2" />

    <circle cx="324" cy="152" r="3.2" />
    <circle cx="616" cy="216" r="3.2" />
    <circle cx="930" cy="272" r="3.2" />
    <circle cx="352" cy="276" r="2.8" />
    <circle cx="624" cy="440" r="2.8" />
    <circle cx="654" cy="664" r="2.8" />
    <circle cx="386" cy="834" r="2.8" />

    <circle cx="1526" cy="200" r="2.8" />
    <circle cx="1312" cy="386" r="2.8" />
    <circle cx="1282" cy="752" r="2.8" />
    <circle cx="1286" cy="1010" r="2.8" />

    <circle cx="734" cy="244" r="3" />
    <circle cx="986" cy="182" r="3" />
    <circle cx="710" cy="370" r="3" />
    <circle cx="976" cy="306" r="3" />
    <circle cx="696" cy="510" r="3" />
    <circle cx="966" cy="444" r="3" />
    <circle cx="684" cy="644" r="3" />
    <circle cx="962" cy="578" r="3" />
    <circle cx="704" cy="788" r="3" />
    <circle cx="972" cy="724" r="3" />
    <circle cx="722" cy="916" r="3" />
    <circle cx="988" cy="852" r="3" />
  </g>

  <g fill="#D7D0FF" opacity="0.32">
    <rect x="456" y="166" width="26" height="10" rx="5" />
    <rect x="438" y="294" width="24" height="10" rx="5" />
    <rect x="424" y="430" width="24" height="10" rx="5" />
    <rect x="410" y="568" width="24" height="10" rx="5" />
    <rect x="428" y="706" width="24" height="10" rx="5" />
    <rect x="448" y="836" width="24" height="10" rx="5" />

    <rect x="1442" y="178" width="24" height="10" rx="5" />
    <rect x="1430" y="342" width="24" height="10" rx="5" />
    <rect x="1418" y="506" width="24" height="10" rx="5" />
    <rect x="1410" y="670" width="24" height="10" rx="5" />
    <rect x="1420" y="836" width="24" height="10" rx="5" />
    <rect x="1434" y="968" width="24" height="10" rx="5" />

    <rect x="910" y="140" width="18" height="8" rx="4" />
    <rect x="914" y="286" width="18" height="8" rx="4" />
    <rect x="900" y="426" width="18" height="8" rx="4" />
    <rect x="892" y="564" width="18" height="8" rx="4" />
    <rect x="906" y="700" width="18" height="8" rx="4" />
    <rect x="920" y="838" width="18" height="8" rx="4" />
  </g>
</svg>
